<svg xmlns="http://www.w3.org/2000/svg" style="display: none;">
    <symbol id="icon-bubbles">
        <path d="M15 0v0c8.284 0 15 5.435 15 12.139s-6.716 12.139-15 12.139c-0.796 0-1.576-0.051-2.339-0.147-3.222 3.209-6.943 3.785-10.661 3.869v-0.785c2.008-0.98 3.625-2.765 3.625-4.804 0-0.285-0.022-0.564-0.063-0.837-3.392-2.225-5.562-5.625-5.562-9.434 0-6.704 6.716-12.139 15-12.139zM31.125 27.209c0 1.748 1.135 3.278 2.875 4.118v0.673c-3.223-0.072-6.181-0.566-8.973-3.316-0.661 0.083-1.337 0.126-2.027 0.126-2.983 0-5.732-0.805-7.925-2.157 4.521-0.016 8.789-1.464 12.026-4.084 1.631-1.32 2.919-2.87 3.825-4.605 0.961-1.84 1.449-3.799 1.449-5.825 0-0.326-0.014-0.651-0.039-0.974 2.268 1.873 3.664 4.426 3.664 7.24 0 3.265-1.88 6.179-4.82 8.086-0.036 0.234-0.055 0.474-0.055 0.718z" />
    </symbol>

    <symbol id="icon-twitter">
        <path d="M32 6.076c-1.177 0.522-2.443 0.875-3.771 1.034 1.355-0.813 2.396-2.099 2.887-3.632-1.269 0.752-2.674 1.299-4.169 1.593-1.198-1.276-2.904-2.073-4.792-2.073-3.626 0-6.565 2.939-6.565 6.565 0 0.515 0.058 1.016 0.17 1.496-5.456-0.274-10.294-2.888-13.532-6.86-0.565 0.97-0.889 2.097-0.889 3.301 0 2.278 1.159 4.287 2.921 5.465-1.076-0.034-2.088-0.329-2.974-0.821-0.001 0.027-0.001 0.055-0.001 0.083 0 3.181 2.263 5.834 5.266 6.437-0.551 0.15-1.131 0.23-1.73 0.23-0.423 0-0.834-0.041-1.235-0.118 0.835 2.608 3.26 4.506 6.133 4.559-2.247 1.761-5.078 2.81-8.154 2.81-0.53 0-1.052-0.031-1.566-0.092 2.905 1.863 6.356 2.95 10.064 2.95 12.076 0 18.679-10.004 18.679-18.68 0-0.285-0.006-0.568-0.019-0.849 1.283-0.926 2.396-2.082 3.276-3.398z" />
    </symbol>

    <symbol id="icon-dribbble">
        <path d="M16 32c-8.822 0-16-7.178-16-16s7.178-16 16-16c8.823 0 16 7.178 16 16s-7.177 16-16 16zM29.494 18.19c-0.468-0.148-4.23-1.27-8.513-0.584 1.788 4.912 2.515 8.913 2.655 9.744 3.066-2.073 5.249-5.357 5.858-9.16zM21.338 28.601c-0.203-1.199-0.997-5.378-2.916-10.364-0.030 0.010-0.060 0.020-0.090 0.030-7.708 2.686-10.476 8.032-10.721 8.534 2.317 1.807 5.229 2.885 8.389 2.885 1.893 0 3.697-0.387 5.338-1.086zM5.847 25.159c0.31-0.53 4.060-6.74 11.109-9.019 0.178-0.058 0.358-0.112 0.539-0.162-0.343-0.776-0.717-1.554-1.108-2.319-6.825 2.043-13.448 1.957-14.046 1.945-0.004 0.139-0.007 0.278-0.007 0.418 0 3.51 1.331 6.715 3.513 9.138zM2.622 13.222c0.611 0.008 6.242 0.033 12.634-1.665-2.264-4.025-4.707-7.41-5.067-7.904-3.823 1.803-6.681 5.328-7.567 9.569zM12.797 2.734c0.378 0.506 2.86 3.886 5.099 8 4.86-1.821 6.917-4.587 7.163-4.937-2.413-2.141-5.587-3.444-9.059-3.444-1.103 0-2.175 0.132-3.203 0.38zM26.579 7.378c-0.288 0.39-2.578 3.326-7.631 5.389 0.318 0.651 0.623 1.313 0.907 1.979 0.101 0.236 0.199 0.471 0.294 0.705 4.547-0.572 9.066 0.345 9.516 0.44-0.030-3.226-1.183-6.188-3.086-8.513z" />
    </symbol>

    <symbol id="icon-github">
        <path d="M0 17.388c0 1.45 0.136 2.762 0.407 3.935 0.271 1.174 0.647 2.193 1.127 3.059 0.48 0.866 1.090 1.627 1.831 2.285 0.741 0.657 1.544 1.195 2.41 1.612 0.866 0.417 1.854 0.756 2.965 1.017 1.111 0.261 2.245 0.443 3.403 0.548 1.158 0.104 2.431 0.156 3.818 0.156 1.398 0 2.676-0.052 3.834-0.156 1.158-0.104 2.295-0.287 3.411-0.548 1.116-0.261 2.11-0.6 2.981-1.017 0.871-0.417 1.68-0.954 2.425-1.612 0.746-0.657 1.361-1.419 1.846-2.285 0.485-0.866 0.863-1.886 1.134-3.059 0.271-1.174 0.407-2.486 0.407-3.935 0-2.587-0.866-4.825-2.597-6.713 0.094-0.25 0.18-0.535 0.258-0.853 0.078-0.318 0.151-0.772 0.219-1.361 0.068-0.589 0.042-1.27-0.078-2.042-0.12-0.772-0.342-1.56-0.665-2.363l-0.235-0.047c-0.167-0.031-0.441-0.023-0.822 0.024s-0.824 0.141-1.33 0.282c-0.506 0.141-1.158 0.412-1.956 0.814-0.798 0.402-1.64 0.905-2.527 1.51-1.523-0.417-3.615-0.626-6.275-0.626-2.65 0-4.736 0.209-6.259 0.626-0.887-0.605-1.734-1.108-2.543-1.51-0.808-0.402-1.453-0.673-1.933-0.814-0.48-0.141-0.928-0.232-1.346-0.274-0.417-0.042-0.681-0.055-0.79-0.039-0.11 0.016-0.196 0.034-0.258 0.055-0.323 0.803-0.545 1.591-0.665 2.363-0.12 0.772-0.146 1.453-0.078 2.042 0.068 0.589 0.141 1.043 0.219 1.361 0.078 0.318 0.164 0.602 0.258 0.853-1.732 1.888-2.598 4.126-2.598 6.713zM3.928 21.315c0-1.502 0.683-2.879 2.050-4.131 0.407-0.376 0.881-0.66 1.424-0.853 0.542-0.193 1.155-0.302 1.839-0.329 0.683-0.026 1.338-0.021 1.964 0.016 0.626 0.037 1.398 0.086 2.316 0.149 0.918 0.063 1.711 0.094 2.379 0.094 0.668 0 1.46-0.031 2.378-0.094 0.918-0.063 1.69-0.112 2.316-0.149 0.626-0.037 1.28-0.042 1.964-0.016 0.683 0.026 1.296 0.136 1.839 0.329 0.542 0.193 1.017 0.477 1.424 0.853 1.367 1.231 2.050 2.608 2.050 4.131 0 0.897-0.112 1.693-0.337 2.386-0.224 0.694-0.511 1.275-0.861 1.745-0.349 0.469-0.834 0.868-1.455 1.197-0.621 0.329-1.226 0.582-1.815 0.759-0.589 0.177-1.346 0.316-2.269 0.415-0.923 0.099-1.747 0.159-2.472 0.18-0.725 0.021-1.646 0.031-2.762 0.031-1.116 0-2.037-0.010-2.762-0.031-0.725-0.021-1.549-0.081-2.472-0.18-0.923-0.099-1.68-0.237-2.269-0.415-0.589-0.177-1.194-0.43-1.815-0.759-0.621-0.329-1.106-0.728-1.455-1.197-0.349-0.469-0.636-1.051-0.861-1.745-0.224-0.694-0.336-1.489-0.336-2.386zM20 21c0-1.657 0.895-3 2-3s2 1.343 2 3c0 1.657-0.895 3-2 3-1.105 0-2-1.343-2-3zM8 21c0-1.657 0.895-3 2-3s2 1.343 2 3c0 1.657-0.895 3-2 3-1.105 0-2-1.343-2-3z" />
    </symbol>
</svg>
